<?xml version="1.0" standalone="no"?>
<svg preserveAspectRatio="none" viewBox="0 0 200 200" xmlns="http://www.w3.org/2000/svg">
  <path fill="#F7F2F0" d="M41.9,-54C57.4,-46.5,75.1,-38.3,81.1,-25.1C87.2,-11.8,81.7,6.4,73.9,22.1C66.2,37.7,56.2,50.7,43.6,59.6C30.9,68.5,15.4,73.2,-1.5,75.4C-18.5,77.5,-37.1,77,-47.7,67.5C-58.4,57.9,-61.2,39.4,-66.6,21.8C-72.1,4.3,-80.1,-12.2,-77,-26C-73.9,-39.9,-59.6,-51.1,-44.9,-58.9C-30.2,-66.7,-15.1,-71,-0.9,-69.7C13.2,-68.4,26.5,-61.5,41.9,-54Z" transform="translate(100 100)" />
</svg>
